<svg width="171" height="39" viewBox="0 0 171 39" fill="none" xmlns="http://www.w3.org/2000/svg">
<g filter="url(#filter0_i_1066_1173)">
<path d="M7.2002 0.520351H12.4802V9.72035H7.2002V0.520351ZM0.160195 11.6804H19.4402V16.2004H0.160195V11.6804ZM22.4802 2.00035H31.3202V7.48035H22.4802V2.00035ZM7.4002 21.3204V23.0404H12.3602V21.3204H7.4002ZM2.1202 17.2004H18.0002V27.2004H2.1202V17.2004ZM2.5602 27.8804L7.3202 26.6804C7.69353 27.347 8.01353 28.107 8.2802 28.9604C8.57353 29.787 8.7602 30.507 8.8402 31.1204L3.8002 32.5204C3.77353 31.907 3.6402 31.1604 3.4002 30.2804C3.1602 29.4004 2.8802 28.6004 2.5602 27.8804ZM11.8802 26.4004L17.3202 27.6004C16.8935 28.507 16.5069 29.3604 16.1602 30.1604C15.8402 30.9337 15.5335 31.6137 15.2402 32.2004L10.6802 31.0404C10.8935 30.347 11.1202 29.5737 11.3602 28.7204C11.6002 27.8404 11.7735 27.067 11.8802 26.4004ZM0.000195369 32.1204C1.57353 32.0137 3.3602 31.8804 5.3602 31.7204C7.38686 31.5337 9.5202 31.347 11.7602 31.1604C14.0002 30.947 16.2135 30.7337 18.4002 30.5204L18.5202 35.1204C16.4402 35.3604 14.3335 35.587 12.2002 35.8004C10.0669 36.0404 8.01353 36.267 6.0402 36.4804C4.06686 36.6937 2.25353 36.8937 0.600195 37.0804L0.000195369 32.1204ZM1.2802 2.20035H5.9602V6.44035H13.7202V2.20035H18.6402V10.6804H1.2802V2.20035ZM20.2802 2.00035H25.6802V15.6804C25.6802 17.3604 25.6135 19.2004 25.4802 21.2004C25.3735 23.1737 25.1469 25.187 24.8002 27.2404C24.4802 29.267 24.0002 31.227 23.3602 33.1204C22.7202 34.987 21.8669 36.667 20.8002 38.1604C20.4802 37.8404 20.0269 37.4937 19.4402 37.1204C18.8535 36.747 18.2535 36.387 17.6402 36.0404C17.0535 35.6937 16.5335 35.427 16.0802 35.2404C17.0669 33.8804 17.8402 32.387 18.4002 30.7604C18.9602 29.107 19.3735 27.4137 19.6402 25.6804C19.9069 23.9204 20.0802 22.187 20.1602 20.4804C20.2402 18.7737 20.2802 17.1737 20.2802 15.6804V2.00035ZM28.2002 2.00035H33.7602V30.6404C33.7602 31.0937 33.7602 31.4537 33.7602 31.7204C33.7602 31.9604 33.7735 32.1204 33.8002 32.2004C33.8802 32.3604 33.9869 32.4404 34.1202 32.4404C34.1735 32.4404 34.2269 32.4404 34.2802 32.4404C34.3602 32.4404 34.4269 32.4404 34.4802 32.4404C34.6669 32.4404 34.7869 32.3737 34.8402 32.2404C34.8935 32.1337 34.9335 31.9737 34.9602 31.7604C34.9869 31.547 35.0135 31.2537 35.0402 30.8804C35.0669 30.4537 35.0802 29.827 35.0802 29.0004C35.1069 28.147 35.1335 27.187 35.1602 26.1204C35.6669 26.547 36.2669 26.947 36.9602 27.3204C37.6535 27.6937 38.3335 27.987 39.0002 28.2004C38.9735 28.8937 38.9335 29.6404 38.8802 30.4404C38.8269 31.2137 38.7602 31.9337 38.6802 32.6004C38.6269 33.267 38.5602 33.8004 38.4802 34.2004C38.3735 34.787 38.2002 35.2804 37.9602 35.6804C37.7469 36.107 37.4669 36.467 37.1202 36.7604C36.8002 37.027 36.4002 37.227 35.9202 37.3604C35.4669 37.4937 35.0135 37.5604 34.5602 37.5604C34.2135 37.5604 33.8269 37.5604 33.4002 37.5604C33.0002 37.5604 32.6402 37.5604 32.3202 37.5604C31.8135 37.5604 31.2802 37.4537 30.7202 37.2404C30.1602 37.0537 29.6935 36.7604 29.3202 36.3604C29.0802 36.067 28.8669 35.7204 28.6802 35.3204C28.5202 34.9204 28.4002 34.3737 28.3202 33.6804C28.2402 32.987 28.2002 32.067 28.2002 30.9204V2.00035ZM46.4802 2.72035H80.1602V7.36035H46.4802V2.72035ZM48.0402 32.3204H78.8402V37.0404H48.0402V32.3204ZM55.0802 8.56035H71.1202V12.5204H55.0802V8.56035ZM55.0802 13.7204H71.1202V17.6804H55.0802V13.7204ZM44.2002 18.8404H82.2002V23.5604H44.2002V18.8404ZM53.6802 26.1604H72.8002V30.6804H53.6802V26.1604ZM51.6802 0.160351H57.5202V21.4004H51.6802V0.160351ZM69.0002 0.20035H74.9602V21.4404H69.0002V0.20035ZM60.1602 24.1204H66.0802V35.1204H60.1602V24.1204ZM54.3202 20.2004L59.2002 22.0004C58.3202 23.4404 57.2669 24.8004 56.0402 26.0804C54.8402 27.3337 53.5202 28.4804 52.0802 29.5204C50.6402 30.5337 49.1202 31.387 47.5202 32.0804C47.2535 31.627 46.9069 31.1337 46.4802 30.6004C46.0535 30.0404 45.6002 29.4937 45.1202 28.9604C44.6669 28.427 44.2402 27.987 43.8402 27.6404C45.2802 27.1337 46.6669 26.507 48.0002 25.7604C49.3335 24.987 50.5469 24.1204 51.6402 23.1604C52.7335 22.2004 53.6269 21.2137 54.3202 20.2004ZM72.2802 20.2004C73.0002 21.1604 73.8935 22.0937 74.9602 23.0004C76.0535 23.907 77.2535 24.7337 78.5602 25.4804C79.8935 26.2004 81.2402 26.8137 82.6002 27.3204C82.2002 27.667 81.7469 28.107 81.2402 28.6404C80.7602 29.1737 80.3069 29.7204 79.8802 30.2804C79.4535 30.8404 79.0935 31.347 78.8002 31.8004C77.3602 31.1337 75.9469 30.2937 74.5602 29.2804C73.2002 28.2404 71.9335 27.0937 70.7602 25.8404C69.5869 24.587 68.5602 23.2937 67.6802 21.9604L72.2802 20.2004ZM103.96 0.000350475H110.24V8.48035H103.96V0.000350475ZM104.04 10.2803H110.12V38.2004H104.04V10.2803ZM88.7202 4.96035H125.84V10.6403H88.7202V4.96035ZM92.3602 14.1203H118.76V19.8004H98.2402V33.4404H92.3602V14.1203ZM116.6 14.1203H122.68V27.4004C122.68 28.7337 122.507 29.8137 122.16 30.6404C121.84 31.467 121.214 32.107 120.28 32.5604C119.347 32.987 118.294 33.2537 117.12 33.3604C115.947 33.467 114.614 33.5204 113.12 33.5204C113.014 32.667 112.76 31.6937 112.36 30.6004C111.987 29.507 111.6 28.5737 111.2 27.8004C111.734 27.827 112.307 27.8537 112.92 27.8804C113.56 27.907 114.134 27.9204 114.64 27.9204C115.174 27.9204 115.534 27.9204 115.72 27.9204C116.04 27.9204 116.267 27.8804 116.4 27.8004C116.534 27.6937 116.6 27.5204 116.6 27.2804V14.1203ZM132.8 2.24035H151.2V7.84035H132.8V2.24035ZM143.08 13.8404H150.32V19.3204H143.08V13.8404ZM140.6 5.24035H146.24V30.2804H140.6V5.24035ZM133.68 11.9203H138.88V30.8404H133.68V11.9203ZM131.72 29.0004C133.374 28.7604 135.267 28.4537 137.4 28.0804C139.534 27.707 141.787 27.2937 144.16 26.8404C146.534 26.387 148.867 25.9337 151.16 25.4804L151.68 30.7604C149.494 31.2404 147.28 31.7337 145.04 32.2404C142.8 32.7204 140.627 33.187 138.52 33.6404C136.414 34.0937 134.48 34.507 132.72 34.8804L131.72 29.0004ZM154.16 7.40035H170.2V12.7604H154.16V7.40035ZM154.96 0.120349L160.72 1.04035C160.294 3.65368 159.72 6.20035 159 8.68035C158.307 11.1337 157.467 13.4004 156.48 15.4804C155.52 17.5604 154.4 19.3604 153.12 20.8804C152.827 20.507 152.414 20.067 151.88 19.5604C151.347 19.027 150.787 18.507 150.2 18.0004C149.614 17.4937 149.107 17.0937 148.68 16.8004C149.827 15.547 150.8 14.0537 151.6 12.3204C152.427 10.5604 153.12 8.64035 153.68 6.56035C154.24 4.48035 154.667 2.33368 154.96 0.120349ZM162.16 10.8003L167.96 11.2804C167.427 15.787 166.574 19.7604 165.4 23.2004C164.227 26.6404 162.574 29.6004 160.44 32.0804C158.334 34.5604 155.6 36.627 152.24 38.2804C152.08 37.827 151.8 37.267 151.4 36.6004C151.027 35.9604 150.614 35.3204 150.16 34.6804C149.734 34.0404 149.347 33.5204 149 33.1204C151.96 31.867 154.347 30.227 156.16 28.2004C157.974 26.1737 159.347 23.7204 160.28 20.8404C161.214 17.9337 161.84 14.587 162.16 10.8003ZM157.16 11.4004C157.72 14.6804 158.534 17.747 159.6 20.6004C160.667 23.427 162.08 25.907 163.84 28.0404C165.627 30.1737 167.854 31.8537 170.52 33.0804C170.094 33.4537 169.627 33.9337 169.12 34.5204C168.614 35.107 168.134 35.707 167.68 36.3204C167.254 36.9604 166.894 37.547 166.6 38.0804C163.667 36.507 161.254 34.4804 159.36 32.0004C157.467 29.4937 155.947 26.587 154.8 23.2804C153.654 19.947 152.72 16.267 152 12.2404L157.16 11.4004Z" fill="url(#paint0_linear_1066_1173)"/>
</g>
<defs>
<filter id="filter0_i_1066_1173" x="0" y="0" width="170.521" height="42.2803" filterUnits="userSpaceOnUse" color-interpolation-filters="sRGB">
<feFlood flood-opacity="0" result="BackgroundImageFix"/>
<feBlend mode="normal" in="SourceGraphic" in2="BackgroundImageFix" result="shape"/>
<feColorMatrix in="SourceAlpha" type="matrix" values="0 0 0 0 0 0 0 0 0 0 0 0 0 0 0 0 0 0 127 0" result="hardAlpha"/>
<feOffset dy="4"/>
<feGaussianBlur stdDeviation="2"/>
<feComposite in2="hardAlpha" operator="arithmetic" k2="-1" k3="1"/>
<feColorMatrix type="matrix" values="0 0 0 0 0.999962 0 0 0 0 0.999962 0 0 0 0 0.999962 0 0 0 0.25 0"/>
<feBlend mode="normal" in2="shape" result="effect1_innerShadow_1066_1173"/>
</filter>
<linearGradient id="paint0_linear_1066_1173" x1="171.2" y1="44.3604" x2="-0.888588" y2="-2.31229" gradientUnits="userSpaceOnUse">
<stop stop-color="#0062E2"/>
<stop offset="1" stop-color="#00367C"/>
</linearGradient>
</defs>
</svg>
