<?xml version="1.0" encoding="UTF-8"?>
<svg xmlns="http://www.w3.org/2000/svg" xmlns:xlink="http://www.w3.org/1999/xlink" viewBox="0 0 673.73 733.19">
  <defs>
    <style>
      .cls-1 {
        stroke-width: 3px;
      }

      .cls-1, .cls-2 {
        stroke: #000;
        stroke-miterlimit: 10;
      }

      .cls-1, .cls-2, .cls-3, .cls-4, .cls-5 {
        fill: #fff;
      }

      .cls-6 {
        fill: #3d7371;
      }

      .cls-7 {
        opacity: .15;
      }

      .cls-7, .cls-8, .cls-9, .cls-10 {
        fill: #404041;
      }

      .cls-7, .cls-11, .cls-12, .cls-13, .cls-14, .cls-10 {
        mix-blend-mode: multiply;
      }

      .cls-15 {
        fill: #302935;
      }

      .cls-16 {
        fill: #d0d2d3;
      }

      .cls-17 {
        fill: #549694;
      }

      .cls-2 {
        stroke-width: 9px;
      }

      .cls-3 {
        opacity: .25;
      }

      .cls-3, .cls-4, .cls-5 {
        mix-blend-mode: overlay;
      }

      .cls-18 {
        fill: #162026;
      }

      .cls-19 {
        fill: #919396;
      }

      .cls-20 {
        fill: none;
      }

      .cls-8 {
        opacity: .5;
      }

      .cls-21 {
        clip-path: url(#clippath-1);
      }

      .cls-22 {
        fill: #578fa2;
      }

      .cls-11, .cls-13, .cls-23 {
        fill: #909596;
      }

      .cls-11, .cls-5 {
        opacity: .3;
      }

      .cls-12, .cls-13 {
        opacity: .4;
      }

      .cls-24 {
        isolation: isolate;
      }

      .cls-25 {
        fill: #4e7f91;
      }

      .cls-14, .cls-4, .cls-10 {
        opacity: .2;
      }

      .cls-26 {
        fill: #ebe5bd;
      }

      .cls-27 {
        fill: #f69024;
      }

      .cls-28 {
        fill: #00bed6;
      }

      .cls-29 {
        fill: #6ea9b7;
      }

      .cls-30 {
        fill: #a4222d;
      }

      .cls-31 {
        fill: #3e3643;
      }

      .cls-32 {
        fill: #1f1916;
      }

      .cls-33 {
        fill: #28212c;
      }

      .cls-34 {
        fill: #cbcdce;
      }

      .cls-35 {
        clip-path: url(#clippath);
      }
    </style>
    <clipPath id="clippath">
      <path class="cls-20" d="M316.36,588.1c.67-2.38,1.73-4.71,2.62-6.94,2.12-5.33,4.37-10.65,7.15-15.67.43-.78.88-1.56,1.36-2.32.24-.39,1.27-1.46,1.27-1.89,0,0,2-3.85,7.13-3.85,0,0,68.76.75,101.8,4.7,0,0,15.25,2.57,24.81,10.62l28.23,23.31s8.84,12.55-5.56,14.83c-14.4,2.28-156.26-5.27-156.26-5.27,0,0-4.28-.43-6.99-3.42-1.74-1.92-4.48-4.07-5.6-6.41-.24-.49-.36-1.03-.45-1.56-.34-2.07-.06-4.13.5-6.14Z"/>
    </clipPath>
    <clipPath id="clippath-1">
      <path class="cls-20" d="M207.14,601.28s11.76-30.58,23.31-42.34c0,0,58.81-1.28,75.92-1.5,0,0,4.7,1.14,1.57,6.42l-19.67,32.65s-3.14,4.78-8.55,4.78h-72.57Z"/>
    </clipPath>
  </defs>
  <g class="cls-24">
    <g id="Layer_1" data-name="Layer 1">
      <path class="cls-2" d="M401.43,4.5c-126.23,0-228.56,102.33-228.56,228.56,0,111.88,92.1,186.75,200.93,202.33l17.7,61.59c.83,2.89,4.79,3.22,6.09.51l28.37-59.13c122.84-1.38,240.66-30.75,243.25-205.3C671.65,67.56,527.66,4.5,401.43,4.5Z"/>
      <g>
        <path class="cls-7" d="M411.01,709.45c-124.95,0-226.25,5.32-226.25,11.87s101.29,11.87,226.25,11.87,226.25-5.32,226.25-11.87-101.29-11.87-226.25-11.87Z"/>
        <polygon class="cls-18" points="234.21 684.65 329.76 693.46 512.54 697.45 604.39 698.17 612.95 678.2 604.39 639.05 566.81 628.01 221.56 628.01 234.21 684.65"/>
        <path class="cls-22" d="M638.64,654.96s-1.64-22.45-9.23-32.61c0,0-4.6-4.7-18.5-7.91,0,0-39.64-9.09-84.83-12.23,0,0-30.23-21.46-62.73-40.49,0,0-20.39-8.84-46.91-8.84,0,0-166.76-4.52-199.67,2.74-.33.07-.63.25-.86.51l-1.81,2.02c-.45.51-.29,1.31.32,1.59l1.34.63c.52.24.65.92.26,1.33-3.37,3.56-16.34,18.16-22.15,37.69-.27.93-.42,1.89-.42,2.86v40.75s-7.26.74-10.52,5.16l-1.24,11.52s.93,14.4,9.19,17.11c0,0,29.5,6.3,43.33,7.87,0,0,1.62-19.91,7.04-34.31,0,0,6.52-17.19,32.75-17.19,0,0,37.92-.29,42.77,13.97,0,0,5.85,15.83,8.27,34.22l4.71,12.12,182.78,3.99,1.71-12.55s3.42-33.65,12.83-41.35c0,0,6.99-5.99,29.23-5.99,0,0,37.07-.71,41.63,15.54,0,0,6.13,16.82,6.56,41.49h26.95s3.35-2.92,4.63-5.85l-.78-3.07,2.57-9.91h1.57s1.5-.71,1.5-2.5v-.36l.43-14.97s-1.07-1.92-2.71-2.99Z"/>
        <g class="cls-14">
          <path class="cls-23" d="M639.43,675.78s1.5-.71,1.5-2.5v-.36l.43-14.97s-1.07-1.92-2.71-2.99c0,0-.1-1.41-.38-3.69l-41.8-1.42c.64,1,1.14,2.08,1.47,3.25,0,0,6.13,16.82,6.56,41.49h26.95s3.35-2.92,4.63-5.84l-.78-3.07,2.57-9.91h1.57Z"/>
          <path class="cls-23" d="M241.25,650.34s2.69-7.09,11.56-12.16l-59.36-2.02v6.83s-7.26.74-10.52,5.16l-1.24,11.52s.93,14.4,9.19,17.11c0,0,29.5,6.3,43.33,7.87,0,0,1.62-19.91,7.04-34.31Z"/>
          <path class="cls-23" d="M514.25,684.9s2.64-25.99,9.67-37.51l-213.55-7.26c3.1,1.82,5.43,4.1,6.41,6.99,0,0,5.85,15.83,8.27,34.22l4.71,12.12,182.78,3.99,1.71-12.55Z"/>
        </g>
        <path class="cls-25" d="M392.64,548.61c-63.87-7.41-148.88-1.35-148.88-1.35-6.42,1.28-9.84,8.13-9.84,8.13h19.67l2.03-3.97c.4-.79,1.17-1.31,2.05-1.4,28.99-2.8,100.78-.36,112.87.08,1.07.04,2.01.68,2.44,1.66l1.12,2.56h26.63c-3.96-4.6-8.09-5.7-8.09-5.7Z"/>
        <path class="cls-4" d="M200.01,584.39h299.76c-10.54-6.9-23.3-14.98-36.42-22.67,0,0-20.39-8.84-46.91-8.84,0,0-166.76-4.52-199.67,2.74-.33.07-.63.25-.86.51l-1.81,2.02c-.45.51-.29,1.31.32,1.59l1.34.63c.52.24.65.92.26,1.33-2.43,2.57-9.88,10.9-16.01,22.69Z"/>
        <g>
          <path class="cls-33" d="M597.63,685.69c0,21.16-17.15,38.31-38.31,38.31s-38.31-17.15-38.31-38.31,17.15-38.31,38.31-38.31,38.31,17.16,38.31,38.31Z"/>
          <path class="cls-31" d="M559.32,647.37c-21.16,0-38.31,17.16-38.31,38.31s17.15,38.31,38.31,38.31,38.31-17.15,38.31-38.31-17.15-38.31-38.31-38.31ZM584.42,710.78c-3.26,3.26-7.06,5.82-11.28,7.61-4.37,1.85-9.02,2.79-13.81,2.79s-9.44-.94-13.81-2.79c-4.22-1.79-8.02-4.35-11.28-7.61-3.26-3.26-5.82-7.05-7.61-11.28-1.85-4.37-2.79-9.02-2.79-13.81s.94-9.44,2.79-13.81c1.79-4.23,4.35-8.02,7.61-11.28,3.26-3.26,7.06-5.82,11.28-7.61,4.37-1.85,9.02-2.79,13.81-2.79s9.44.94,13.81,2.79c4.23,1.79,8.02,4.35,11.28,7.61,3.26,3.26,5.82,7.06,7.61,11.28,1.85,4.37,2.79,9.02,2.79,13.81s-.94,9.44-2.79,13.81c-1.79,4.23-4.35,8.02-7.61,11.28Z"/>
          <path class="cls-31" d="M559.32,655.8c-16.48,0-29.89,13.41-29.89,29.89s13.41,29.89,29.89,29.89,29.89-13.41,29.89-29.89-13.41-29.89-29.89-29.89ZM585.35,685.69c0,3.51-.69,6.92-2.04,10.13-1.31,3.1-3.19,5.88-5.58,8.27-2.39,2.39-5.17,4.27-8.27,5.58-3.21,1.36-6.61,2.04-10.13,2.04s-6.92-.69-10.13-2.04c-3.1-1.31-5.88-3.19-8.27-5.58-2.39-2.39-4.27-5.17-5.58-8.27-1.36-3.21-2.04-6.61-2.04-10.13s.69-6.92,2.04-10.13c1.31-3.1,3.19-5.88,5.58-8.27,2.39-2.39,5.17-4.27,8.27-5.58,3.21-1.36,6.62-2.04,10.13-2.04s6.92.69,10.13,2.04c3.1,1.31,5.88,3.19,8.27,5.58,2.39,2.39,4.27,5.18,5.58,8.27,1.36,3.21,2.04,6.61,2.04,10.13Z"/>
          <path class="cls-16" d="M585.96,685.68c-.04,14.71-11.99,26.64-26.71,26.64s-26.61-11.93-26.57-26.64c.04-14.71,11.99-26.64,26.71-26.64s26.61,11.93,26.57,26.64Z"/>
          <path class="cls-33" d="M583.1,685.69c-.03,13.13-10.7,23.78-23.84,23.78s-23.75-10.65-23.72-23.78c.03-13.13,10.7-23.78,23.84-23.78s23.75,10.64,23.72,23.78Z"/>
          <path class="cls-19" d="M583.09,688.18v-4.99s-8.5,0-8.5,0c-.16-1.03-.43-2.02-.79-2.98l7.38-4.25-2.49-4.32-7.38,4.25c-.65-.8-1.38-1.53-2.17-2.18l4.27-7.37-4.32-2.5-4.27,7.37c-.95-.36-1.95-.63-2.97-.8l.02-8.51h-4.99l-.02,8.51c-1.03.17-2.03.44-2.98.8l-4.24-7.37-4.33,2.5,4.24,7.37c-.8.65-1.53,1.38-2.18,2.18l-7.36-4.25-2.51,4.32,7.36,4.25c-.36.95-.63,1.95-.8,2.98h-8.51v4.99s8.5,0,8.5,0c.16,1.03.43,2.03.79,2.98l-7.38,4.25,2.49,4.33,7.38-4.26c.65.8,1.38,1.53,2.17,2.18l-4.27,7.37,4.32,2.5,4.27-7.37c.95.36,1.95.63,2.98.8l-.02,8.51h4.99l.02-8.51c1.03-.17,2.03-.44,2.98-.8l4.24,7.37,4.33-2.5-4.24-7.37c.8-.65,1.53-1.38,2.18-2.18l7.36,4.26,2.51-4.33-7.36-4.25c.36-.95.63-1.95.8-2.98h8.51Z"/>
          <path class="cls-33" d="M566.59,685.69c-.01,4.01-3.27,7.27-7.29,7.27s-7.26-3.25-7.25-7.27c0-4.02,3.27-7.27,7.29-7.27s7.26,3.25,7.25,7.27Z"/>
          <path class="cls-16" d="M559.32,697.22c-6.36,0-11.53-5.17-11.53-11.53s5.17-11.53,11.53-11.53,11.53,5.17,11.53,11.53-5.17,11.53-11.53,11.53ZM559.32,675.4c-5.67,0-10.29,4.62-10.29,10.29s4.62,10.29,10.29,10.29,10.29-4.62,10.29-10.29-4.62-10.29-10.29-10.29Z"/>
          <path class="cls-34" d="M563.55,685.69c0,2.33-1.9,4.22-4.23,4.22s-4.22-1.89-4.21-4.22c0-2.33,1.9-4.22,4.23-4.22s4.22,1.89,4.21,4.22Z"/>
          <path class="cls-16" d="M559.32,670.56c-8.34,0-15.12,6.78-15.12,15.12s6.78,15.12,15.12,15.12,15.12-6.78,15.12-15.12-6.78-15.12-15.12-15.12ZM572.49,685.69c0,1.78-.35,3.5-1.03,5.13-.66,1.57-1.61,2.98-2.82,4.19-1.21,1.21-2.62,2.16-4.19,2.82-1.62.69-3.35,1.03-5.13,1.03s-3.5-.35-5.12-1.03c-1.57-.66-2.98-1.61-4.19-2.82-1.21-1.21-2.16-2.62-2.82-4.19-.69-1.62-1.04-3.35-1.04-5.12s.35-3.5,1.04-5.13c.66-1.57,1.61-2.98,2.82-4.19,1.21-1.21,2.62-2.16,4.19-2.82,1.62-.69,3.35-1.03,5.12-1.03s3.5.35,5.13,1.03c1.57.66,2.98,1.61,4.19,2.82,1.21,1.21,2.16,2.62,2.82,4.19.69,1.62,1.03,3.35,1.03,5.13Z"/>
          <path class="cls-16" d="M559.39,659.91c-14.23,0-25.8,11.54-25.83,25.77-.04,14.23,11.47,25.77,25.71,25.77s25.8-11.54,25.83-25.77c.04-14.23-11.47-25.77-25.71-25.77ZM559.26,709.03c-12.89,0-23.32-10.45-23.29-23.34.03-12.89,10.51-23.34,23.4-23.34s23.32,10.45,23.29,23.34c-.03,12.89-10.51,23.34-23.4,23.34Z"/>
          <path class="cls-16" d="M583.09,688.18v-4.99s-8.5,0-8.5,0c-.16-1.03-.43-2.02-.79-2.98l7.38-4.25-2.49-4.32-7.38,4.25c-.65-.8-1.38-1.53-2.17-2.18l4.27-7.37-4.32-2.5-4.27,7.37c-.95-.36-1.95-.63-2.97-.8l.02-8.51h-4.99l-.02,8.51c-1.03.17-2.03.44-2.98.8l-4.24-7.37-4.33,2.5,4.24,7.37c-.8.65-1.53,1.38-2.18,2.18l-7.36-4.25-2.51,4.32,7.36,4.25c-.36.95-.63,1.95-.8,2.98h-8.51v4.99s8.5,0,8.5,0c.16,1.03.43,2.03.79,2.98l-7.38,4.25,2.49,4.33,7.38-4.26c.65.8,1.38,1.53,2.17,2.18l-4.27,7.37,4.32,2.5,4.27-7.37c.95.36,1.95.63,2.98.8l-.02,8.51h4.99l.02-8.51c1.03-.17,2.03-.44,2.98-.8l4.24,7.37,4.33-2.5-4.24-7.37c.8-.65,1.53-1.38,2.18-2.18l7.36,4.26,2.51-4.33-7.36-4.25c.36-.95.63-1.95.8-2.98h8.51ZM573.16,692.24l6.28,3.63-1.26,2.17-6.28-3.63-.92-.53-.67.82c-.6.73-1.28,1.41-2.01,2l-.82.67.53.92,3.62,6.29-2.17,1.25-3.62-6.29-.53-.92-.99.37c-.88.33-1.8.58-2.74.73l-1.04.17v1.06s-.02,7.27-.02,7.27h-2.5l.02-7.26v-1.06s-1.05-.17-1.05-.17c-.93-.15-1.85-.4-2.73-.73l-.99-.37-.53.91-3.65,6.29-2.16-1.25,3.65-6.29.53-.92-.82-.67c-.73-.6-1.4-1.27-2-2l-.67-.82-.92.53-6.3,3.63-1.24-2.17,6.3-3.63.92-.53-.37-.99c-.33-.88-.58-1.8-.73-2.74l-.17-1.05h-8.32v-2.5h8.33l.17-1.04c.15-.93.4-1.85.74-2.74l.38-.99-.92-.53-6.28-3.63,1.26-2.17,6.28,3.63.92.53.67-.82c.6-.73,1.28-1.41,2.01-2l.82-.67-.53-.92-3.62-6.29,2.17-1.25,3.61,6.29.53.92.99-.38c.88-.33,1.8-.58,2.74-.73l1.04-.17v-1.06s.02-7.27.02-7.27h2.5l-.02,7.26v1.06s1.05.17,1.05.17c.93.15,1.85.4,2.73.73l.99.37.53-.91,3.65-6.29,2.16,1.25-3.65,6.29-.53.92.82.67c.73.6,1.4,1.27,2,2l.67.82.92-.53,6.3-3.63,1.25,2.17-6.3,3.63-.92.53.37.99c.33.88.58,1.8.73,2.73l.17,1.05h8.32v2.5h-8.33l-.17,1.04c-.15.93-.4,1.85-.74,2.74l-.38.99.92.53Z"/>
        </g>
        <g>
          <path class="cls-33" d="M318.26,685.69c0,21.16-17.15,38.31-38.31,38.31s-38.31-17.15-38.31-38.31,17.15-38.31,38.31-38.31,38.31,17.16,38.31,38.31Z"/>
          <path class="cls-31" d="M279.95,647.37c-21.16,0-38.31,17.16-38.31,38.31s17.15,38.31,38.31,38.31,38.31-17.15,38.31-38.31-17.15-38.31-38.31-38.31ZM305.04,710.78c-3.26,3.26-7.06,5.82-11.28,7.61-4.37,1.85-9.02,2.79-13.81,2.79s-9.44-.94-13.81-2.79c-4.23-1.79-8.02-4.35-11.28-7.61-3.26-3.26-5.82-7.05-7.61-11.28-1.85-4.37-2.79-9.02-2.79-13.81s.94-9.44,2.79-13.81c1.79-4.23,4.35-8.02,7.61-11.28,3.26-3.26,7.06-5.82,11.28-7.61,4.37-1.85,9.02-2.79,13.81-2.79s9.44.94,13.81,2.79c4.23,1.79,8.02,4.35,11.28,7.61,3.26,3.26,5.82,7.06,7.61,11.28,1.85,4.37,2.79,9.02,2.79,13.81s-.94,9.44-2.79,13.81c-1.79,4.23-4.35,8.02-7.61,11.28Z"/>
          <path class="cls-31" d="M279.95,655.8c-16.48,0-29.89,13.41-29.89,29.89s13.41,29.89,29.89,29.89,29.89-13.41,29.89-29.89-13.41-29.89-29.89-29.89ZM305.97,685.69c0,3.51-.69,6.92-2.04,10.13-1.31,3.1-3.19,5.88-5.58,8.27-2.39,2.39-5.17,4.27-8.27,5.58-3.21,1.36-6.62,2.04-10.13,2.04s-6.92-.69-10.13-2.04c-3.1-1.31-5.88-3.19-8.27-5.58-2.39-2.39-4.27-5.17-5.58-8.27-1.36-3.21-2.04-6.61-2.04-10.13s.69-6.92,2.04-10.13c1.31-3.1,3.19-5.88,5.58-8.27,2.39-2.39,5.17-4.27,8.27-5.58,3.21-1.36,6.62-2.04,10.13-2.04s6.92.69,10.13,2.04c3.1,1.31,5.88,3.19,8.27,5.58,2.39,2.39,4.27,5.18,5.58,8.27,1.36,3.21,2.04,6.61,2.04,10.13Z"/>
          <path class="cls-16" d="M306.59,685.68c-.04,14.71-11.99,26.64-26.71,26.64s-26.61-11.93-26.57-26.64c.04-14.71,11.99-26.64,26.7-26.64s26.61,11.93,26.57,26.64Z"/>
          <path class="cls-33" d="M303.72,685.69c-.03,13.13-10.7,23.78-23.84,23.78s-23.75-10.65-23.72-23.78c.03-13.13,10.7-23.78,23.84-23.78s23.75,10.64,23.72,23.78Z"/>
          <path class="cls-19" d="M303.72,688.18v-4.99s-8.5,0-8.5,0c-.16-1.03-.43-2.02-.79-2.98l7.38-4.25-2.49-4.32-7.38,4.25c-.65-.8-1.38-1.53-2.17-2.18l4.27-7.37-4.32-2.5-4.27,7.37c-.95-.36-1.94-.63-2.98-.8l.02-8.51h-4.99l-.02,8.51c-1.03.17-2.03.44-2.98.8l-4.24-7.37-4.33,2.5,4.24,7.37c-.8.65-1.53,1.38-2.18,2.18l-7.36-4.25-2.51,4.32,7.36,4.25c-.36.95-.63,1.95-.8,2.98h-8.51v4.99s8.5,0,8.5,0c.17,1.03.43,2.03.79,2.98l-7.38,4.25,2.48,4.33,7.38-4.26c.65.8,1.38,1.53,2.17,2.18l-4.27,7.37,4.32,2.5,4.27-7.37c.95.36,1.95.63,2.98.8l-.02,8.51h4.99l.02-8.51c1.03-.17,2.03-.44,2.98-.8l4.24,7.37,4.33-2.5-4.24-7.37c.8-.65,1.53-1.38,2.18-2.18l7.36,4.26,2.51-4.33-7.36-4.25c.36-.95.63-1.95.8-2.98h8.51Z"/>
          <path class="cls-33" d="M287.22,685.69c-.01,4.01-3.27,7.27-7.29,7.27s-7.26-3.25-7.25-7.27c.01-4.02,3.27-7.27,7.29-7.27s7.26,3.25,7.25,7.27Z"/>
          <path class="cls-16" d="M279.95,697.22c-6.36,0-11.53-5.17-11.53-11.53s5.17-11.53,11.53-11.53,11.53,5.17,11.53,11.53-5.17,11.53-11.53,11.53ZM279.95,675.4c-5.67,0-10.29,4.62-10.29,10.29s4.62,10.29,10.29,10.29,10.29-4.62,10.29-10.29-4.62-10.29-10.29-10.29Z"/>
          <path class="cls-34" d="M284.17,685.69c0,2.33-1.9,4.22-4.23,4.22s-4.22-1.89-4.21-4.22c0-2.33,1.9-4.22,4.23-4.22s4.22,1.89,4.21,4.22Z"/>
          <path class="cls-16" d="M279.95,670.56c-8.34,0-15.12,6.78-15.12,15.12s6.78,15.12,15.12,15.12,15.12-6.78,15.12-15.12-6.78-15.12-15.12-15.12ZM293.11,685.69c0,1.78-.35,3.5-1.03,5.13-.66,1.57-1.61,2.98-2.82,4.19-1.21,1.21-2.62,2.16-4.19,2.82-1.62.69-3.35,1.03-5.13,1.03s-3.5-.35-5.12-1.03c-1.57-.66-2.98-1.61-4.19-2.82-1.21-1.21-2.16-2.62-2.82-4.19-.69-1.62-1.03-3.35-1.03-5.12s.35-3.5,1.03-5.13c.66-1.57,1.61-2.98,2.82-4.19,1.21-1.21,2.62-2.16,4.19-2.82,1.62-.69,3.35-1.03,5.12-1.03s3.5.35,5.13,1.03c1.57.66,2.98,1.61,4.19,2.82,1.21,1.21,2.16,2.62,2.82,4.19.69,1.62,1.03,3.35,1.03,5.13Z"/>
          <path class="cls-16" d="M280.01,659.91c-14.23,0-25.8,11.54-25.83,25.77-.04,14.23,11.47,25.77,25.71,25.77s25.8-11.54,25.84-25.77c.04-14.23-11.47-25.77-25.71-25.77ZM279.89,709.03c-12.89,0-23.32-10.45-23.29-23.34.03-12.89,10.51-23.34,23.4-23.34s23.32,10.45,23.29,23.34c-.03,12.89-10.51,23.34-23.4,23.34Z"/>
          <path class="cls-16" d="M303.72,688.18v-4.99s-8.5,0-8.5,0c-.16-1.03-.43-2.02-.79-2.98l7.38-4.25-2.49-4.32-7.38,4.25c-.65-.8-1.38-1.53-2.17-2.18l4.27-7.37-4.32-2.5-4.27,7.37c-.95-.36-1.94-.63-2.98-.8l.02-8.51h-4.99l-.02,8.51c-1.03.17-2.03.44-2.98.8l-4.24-7.37-4.33,2.5,4.24,7.37c-.8.65-1.53,1.38-2.18,2.18l-7.36-4.25-2.51,4.32,7.36,4.25c-.36.95-.63,1.95-.8,2.98h-8.51v4.99s8.5,0,8.5,0c.17,1.03.43,2.03.79,2.98l-7.38,4.25,2.48,4.33,7.38-4.26c.65.8,1.38,1.53,2.17,2.18l-4.27,7.37,4.32,2.5,4.27-7.37c.95.36,1.95.63,2.98.8l-.02,8.51h4.99l.02-8.51c1.03-.17,2.03-.44,2.98-.8l4.24,7.37,4.33-2.5-4.24-7.37c.8-.65,1.53-1.38,2.18-2.18l7.36,4.26,2.51-4.33-7.36-4.25c.36-.95.63-1.95.8-2.98h8.51ZM293.78,692.24l6.28,3.63-1.26,2.17-6.28-3.63-.92-.53-.67.82c-.6.73-1.28,1.41-2.01,2l-.82.67.53.92,3.62,6.29-2.17,1.25-3.61-6.29-.53-.92-.99.37c-.88.33-1.8.58-2.74.73l-1.04.17v1.06s-.02,7.27-.02,7.27h-2.5l.02-7.26v-1.06s-1.05-.17-1.05-.17c-.93-.15-1.85-.4-2.73-.73l-.99-.37-.53.91-3.65,6.29-2.16-1.25,3.65-6.29.53-.92-.82-.67c-.73-.6-1.4-1.27-2-2l-.67-.82-.92.53-6.3,3.63-1.24-2.17,6.3-3.63.92-.53-.37-.99c-.33-.88-.58-1.8-.72-2.74l-.17-1.05h-8.32v-2.5h8.33l.17-1.04c.15-.93.4-1.85.74-2.74l.38-.99-.92-.53-6.28-3.63,1.26-2.17,6.28,3.63.92.53.67-.82c.6-.73,1.28-1.41,2.01-2l.82-.67-.53-.92-3.62-6.29,2.17-1.25,3.61,6.29.53.92.99-.38c.88-.33,1.8-.58,2.74-.73l1.04-.17v-1.06s.02-7.27.02-7.27h2.5l-.02,7.26v1.06s1.05.17,1.05.17c.93.15,1.85.4,2.73.73l.99.37.53-.91,3.65-6.29,2.16,1.25-3.65,6.29-.53.92.82.67c.73.6,1.4,1.27,2,2l.67.82.92-.53,6.3-3.63,1.25,2.17-6.3,3.63-.92.53.37.99c.33.88.58,1.8.73,2.73l.17,1.05h8.32v2.5h-8.33l-.17,1.04c-.15.93-.4,1.85-.74,2.74l-.38.99.92.53Z"/>
        </g>
        <path class="cls-15" d="M207.14,601.28s11.76-30.58,23.31-42.34c0,0,58.81-1.28,75.92-1.5,0,0,4.7,1.14,1.57,6.42l-19.67,32.65s-3.14,4.78-8.55,4.78h-72.57Z"/>
        <path class="cls-15" d="M316.36,588.1c.67-2.38,1.73-4.71,2.62-6.94,2.12-5.33,4.37-10.65,7.15-15.67.43-.78.88-1.56,1.36-2.32.24-.39,1.27-1.46,1.27-1.89,0,0,2-3.85,7.13-3.85,0,0,68.76.75,101.8,4.7,0,0,15.25,2.57,24.81,10.62l28.23,23.31s8.84,12.55-5.56,14.83c-14.4,2.28-156.26-5.27-156.26-5.27,0,0-4.28-.43-6.99-3.42-1.74-1.92-4.48-4.07-5.6-6.41-.24-.49-.36-1.03-.45-1.56-.34-2.07-.06-4.13.5-6.14Z"/>
        <path class="cls-15" d="M463.52,561.82l-2.51.85c-.72.24-.84,1.21-.19,1.62,6.31,3.95,30.12,19.12,53.57,37.38.91.71,2.05,1.07,3.21,1.01l8.47-.47s-30.12-21.38-62.56-40.39Z"/>
        <path class="cls-13" d="M505.05,604.06l-.79-2.58c-.74-2.4-2.21-4.51-4.22-6.02l-38.12-28.75s-11.83-8.27-33.79-10.41l-104.01-2.28s-15.61,26.73-19.89,49.83c0,0-2,18.63-2.88,32.65,7.28,2.04,13.62,5.33,15.42,10.62,0,0,5.85,15.83,8.27,34.22l2.8,7.2h173.14l4.07-14.33s8.56-38.5,0-70.15ZM504.22,674l-3.88,13.68h-171.91l-2.55-6.56c-2.39-18.04-8.12-33.81-8.3-34.29-1.63-4.77-6.78-8.45-15.33-10.96.87-13.49,2.73-31.03,2.82-31.9,3.91-21.08,17.52-45.54,19.53-49.09l103.47,2.27c21.15,2.07,32.93,9.97,33.34,10.25l38.26,28.86c1.76,1.33,3.05,3.17,3.7,5.28l.84,2.75c4.38,16.22,4.15,34.3,3.18,46.61-1.03,13.05-3.07,22.56-3.19,23.09Z"/>
        <path class="cls-32" d="M515.96,614.61s-.7,6.26,1.02,8.32l18.77.11s4.67-2.87,4.95-6.72c0,0-.21-1.43-2.64-1.43l-20.1-1.14s-1.93.27-2,.86Z"/>
        <path class="cls-30" d="M207.14,601.28h-13.69s-2.96,20.09,0,41.7h12.23s-.5-32.45,1.46-41.7Z"/>
        <path class="cls-4" d="M600.81,663.49h40.39l.16-5.54s-1.07-1.92-2.71-2.99c0,0,0-.08-.02-.24h-40.15c.54,1.7,1.41,4.7,2.33,8.77Z"/>
        <path class="cls-17" d="M626.22,675.78c-.66,0-1.22.47-1.34,1.11l-.98,5.32c-.14.79.38,1.55,1.17,1.68l10.22,1.79,2.57-9.91h-11.65Z"/>
        <path class="cls-6" d="M626.22,676.18c-.66,0-1.22.47-1.34,1.11l-.98,5.32c-.14.79.38,1.55,1.17,1.68l10.22,1.79,2.57-9.91h-11.65Z"/>
        <g>
          <path class="cls-26" d="M638.62,654.72c-.19-2.27-1.85-20.31-7.92-30.43-1.78-.4-4.54-.7-5.75-.91-1.09-.19-2.03.78-1.83,1.87,3.22,17.49,2.98,29.47,2.98,29.47h12.52Z"/>
          <path class="cls-27" d="M631.73,654.72c-.67-12.71-5.18-27.59-6.35-31.26-.15-.02-.29-.05-.42-.07-1.09-.19-2.03.78-1.83,1.87,3.22,17.49,2.98,29.47,2.98,29.47h5.62Z"/>
          <path class="cls-8" d="M637.69,653.87h-10.72c-.02-3.08-.28-14.05-2.99-28.77-.06-.3.08-.51.16-.61.14-.17.34-.27.56-.27.04,0,.08,0,.13.01,1.4.24,3.97.51,5.34.82l1.11.22c-.18-.33-.37-.66-.56-.98-1.78-.4-4.54-.7-5.75-.91-.09-.02-.18-.02-.27-.02-.97,0-1.74.89-1.56,1.89,3.22,17.49,2.98,29.47,2.98,29.47h12.52c-.02-.18-.04-.48-.08-.86h-.86Z"/>
        </g>
        <path class="cls-9" d="M631.89,696.54l-.45-1.94h-26.95l-.1,3.57h26.2c.86,0,1.49-.8,1.3-1.63Z"/>
        <path class="cls-13" d="M207.14,601.28h-13.69l-.16,1.42h6.88c2.43,0,2.28,3.85,2.28,3.85h0c-1.13,12.65-.76,36.44-.76,36.44h3.99s-.5-32.45,1.46-41.7Z"/>
        <path class="cls-11" d="M236.95,665.98l-54.97-3.89c.67,4.22,2.76,12.68,8.9,14.69,0,0,29.5,6.3,43.33,7.87,0,0,.7-8.65,2.74-18.67Z"/>
        <path class="cls-4" d="M604.23,654.72h2.33c-.4-2.88-1.08-6.3-2.27-10.04-3.92-12.43-18.88-18.66-31-21.48-12.83-2.99-26.83-2.59-39.19,1.97-15.59,5.76-24.65,21.52-24.07,37.4v.02c.76-4,2.3-7.57,3.71-11.48,1.35-3.77,3.5-6.8,6.31-9.74,4.83-5.05,11.63-8.02,18.48-9.49,7.7-1.65,15.64-2.23,23.52-1.73,11.03.7,23.15,3.49,32.2,9.92,4.08,2.9,7.41,6.76,8.96,11.44l1.02,3.22Z"/>
        <g class="cls-12">
          <path class="cls-23" d="M306.37,557.44c-17.11.21-75.92,1.5-75.92,1.5-11.55,11.76-23.31,42.34-23.31,42.34h72.57c5.42,0,8.55-4.78,8.55-4.78l19.67-32.65c3.14-5.28-1.57-6.42-1.57-6.42ZM306.61,563.05l-19.65,32.61c-.21.3-2.92,4.06-7.24,4.06h-70.27c2.84-6.98,12.37-29.37,21.69-39.25,6.42-.14,58.77-1.27,75.02-1.48.3.11.97.42,1.21,1.03.28.68,0,1.76-.75,3.03Z"/>
          <path class="cls-23" d="M490.72,596.08l-28.23-23.31c-9.55-8.05-24.81-10.62-24.81-10.62-33.04-3.96-101.8-4.7-101.8-4.7-5.13,0-7.13,3.85-7.13,3.85,0,.42-1.02,1.5-1.27,1.89-.47.76-.92,1.53-1.36,2.32-2.79,5.02-5.04,10.34-7.15,15.67-.89,2.23-1.95,4.55-2.62,6.94-.56,2.01-.84,4.06-.5,6.14.09.54.21,1.07.45,1.56,1.12,2.34,3.86,4.49,5.6,6.41,2.71,2.99,6.99,3.42,6.99,3.42,0,0,107.1,5.7,144.63,5.7,5.66,0,9.75-.13,11.63-.43,14.4-2.28,5.56-14.83,5.56-14.83ZM491.48,605.67c-.8,1.89-3.01,3.14-6.56,3.7-1.72.27-5.55.41-11.39.41-36.76,0-141.74-5.55-144.5-5.7-.33-.04-3.82-.54-5.96-2.91-.55-.61-1.16-1.21-1.81-1.84-1.41-1.38-2.87-2.8-3.53-4.19-.13-.28-.23-.63-.32-1.15-.27-1.63-.13-3.37.46-5.46.48-1.71,1.19-3.43,1.88-5.1.23-.57.47-1.13.69-1.68,2-5.03,4.24-10.39,7.07-15.49.47-.85.9-1.58,1.31-2.24.04-.06.19-.24.29-.38.55-.68.95-1.22,1.12-1.77.4-.62,2.08-2.86,5.65-2.87,1.16.01,69.1.81,101.58,4.69.79.14,15.13,2.77,24.04,10.28l28.06,23.17c1.04,1.55,3.13,5.66,1.92,8.53Z"/>
        </g>
        <g>
          <path class="cls-10" d="M419.38,620.62c-.15,3.39-3.92,5.98-8.41,5.78-4.49-.2-8.02-3.11-7.86-6.5.15-3.39,3.92-5.98,8.41-5.78,4.49.2,8.01,3.11,7.86,6.5Z"/>
          <path class="cls-16" d="M410.14,607.82h1.78c.77,0,1.39.62,1.39,1.39v21.79c0,.77-.62,1.39-1.39,1.39h-1.79c-.77,0-1.39-.62-1.39-1.39v-21.79c0-.77.62-1.39,1.39-1.39Z" transform="translate(-226.8 1003.05) rotate(-87.44)"/>
          <path class="cls-10" d="M398.75,619.7l-.03.75c-.03.77.56,1.42,1.33,1.45l21.77.97c.77.03,1.42-.56,1.45-1.33l.03-.75-24.55-1.1Z"/>
          <rect class="cls-10" x="403.11" y="617.48" width=".51" height="4.57" transform="translate(27.88 -17.27) rotate(2.54)"/>
          <path class="cls-9" d="M402.26,619.76c-.03.6-.54,1.07-1.14,1.04-.6-.03-1.07-.54-1.04-1.14.03-.6.54-1.07,1.14-1.04.6.03,1.07.54,1.04,1.14Z"/>
        </g>
        <g>
          <path class="cls-10" d="M336.4,616.91c-.15,3.39-3.92,5.98-8.41,5.78-4.49-.2-8.01-3.11-7.86-6.5.15-3.39,3.92-5.98,8.41-5.77,4.49.2,8.01,3.11,7.86,6.5Z"/>
          <path class="cls-16" d="M339.04,614.6l-21.77-.97c-.77-.03-1.42.56-1.46,1.33l-.08,1.78c-.03.77.56,1.42,1.33,1.45l21.77.97c.77.04,1.42-.56,1.46-1.33l.08-1.78c.03-.77-.56-1.42-1.33-1.45Z"/>
          <path class="cls-10" d="M315.77,615.99l-.03.75c-.03.77.56,1.42,1.33,1.45l21.77.97c.77.04,1.42-.56,1.46-1.33l.03-.75-24.55-1.1Z"/>
          <rect class="cls-10" x="320.13" y="613.77" width=".51" height="4.57" transform="translate(28.15 -13.84) rotate(2.59)"/>
          <path class="cls-9" d="M319.28,616.06c-.03.6-.54,1.07-1.14,1.04-.6-.03-1.07-.54-1.04-1.14.03-.6.54-1.07,1.14-1.04.6.03,1.07.54,1.04,1.14Z"/>
        </g>
        <path class="cls-4" d="M182.93,648.15c22.6-2.64,49.62-2.36,60.85-2.09.71-.95,1.6-2,2.68-3.07h-53.01s-7.26.74-10.52,5.16Z"/>
        <path class="cls-4" d="M325.68,642.3c-3.92-12.43-18.88-18.66-31-21.48-12.83-2.99-26.83-2.59-39.2,1.97-9.77,3.61-16.98,11.16-20.86,20.2h3.51c.97-1.38,2.07-2.7,3.3-4,4.83-5.05,11.63-8.02,18.48-9.49,7.7-1.65,15.65-2.23,23.52-1.73,11.03.7,23.15,3.49,32.2,9.92,4.08,2.9,7.41,6.76,8.96,11.44l3.81,12.07s.67-8.12-2.73-18.89Z"/>
        <polygon class="cls-11" points="329.76 693.46 512.54 697.45 513.15 692.93 328.93 691.35 329.76 693.46"/>
        <path class="cls-11" d="M322.88,668.91c.83,3.88,1.6,8.08,2.17,12.43l4.71,12.12,182.78,3.99,1.71-12.55s.63-6.2,2.09-13.88l-193.46-2.11Z"/>
        <path class="cls-11" d="M636.08,688.75l-.78-3.07,2.57-9.91h1.57s1.2-.57,1.45-1.97h-38.13c.9,5.95,1.61,12.98,1.75,20.79h26.95s3.35-2.92,4.63-5.84Z"/>
        <path class="cls-29" d="M503.12,636.55l-106.47-2.38c-.87-.02-1.6.67-1.62,1.55v.46c-.03.87.66,1.6,1.54,1.62l106.47,2.38c.87.02,1.6-.67,1.62-1.55v-.46c.03-.87-.66-1.6-1.54-1.62Z"/>
        <path class="cls-29" d="M386.43,633.94l-55.72-1.25c-.87-.02-1.6.67-1.62,1.55v.47c-.03.87.66,1.6,1.54,1.62l55.72,1.24c.87.02,1.6-.67,1.62-1.55v-.47c.03-.87-.66-1.6-1.54-1.62Z"/>
        <path class="cls-13" d="M386.35,637.57l-55.72-1.24c-.81-.02-1.46-.64-1.53-1.43,0,.06-.02.12-.02.19v.47c-.03.87.66,1.6,1.54,1.62l55.72,1.25c.87.02,1.6-.67,1.62-1.55v-.47c.01-.06,0-.13,0-.19-.11.78-.79,1.38-1.6,1.36Z"/>
        <path class="cls-13" d="M503.04,640.18l-106.47-2.38c-.81-.02-1.46-.64-1.53-1.43,0,.06-.02.12-.02.19v.46c-.03.87.66,1.6,1.54,1.62l106.47,2.38c.87.02,1.6-.67,1.62-1.55v-.47c.01-.06,0-.13,0-.19-.11.78-.78,1.38-1.59,1.36Z"/>
        <path class="cls-18" d="M481.48,600.74l-3.24,4.88,1.27,6.52c.14.73.79,1.26,1.54,1.26h7.18s4.85-4.03,4.92-7.78c.08-3.75-11.66-4.88-11.66-4.88Z"/>
        <g>
          <path class="cls-22" d="M470,603.17l-1.19-11.53s-.03-1.88,3.36-2.23c0,0,7.51.1,10.34,3.28,0,0,4.09,5.66,5.71,12.51,0,0-.6,3.03-2.68,3.1,0,0-7.55.34-11.2-1.02,0,0-4.11-1.82-4.34-4.11Z"/>
          <path class="cls-4" d="M472.17,589.41c-.33.03-.62.08-.89.14,2.36,2.32,9.16,9.61,11.83,18.79,1.43,0,2.42-.04,2.42-.04,2.08-.07,2.68-3.1,2.68-3.1-1.62-6.85-5.71-12.51-5.71-12.51-2.83-3.18-10.34-3.28-10.34-3.28Z"/>
        </g>
        <path class="cls-5" d="M630.71,624.29c-1.78-.4-4.54-.7-5.75-.91-.7-.12-1.34.24-1.65.8,2.91,2.86,8.49,9.11,13.74,19.18-1.18-6.25-3.15-13.75-6.34-19.07Z"/>
        <path class="cls-4" d="M629.41,622.35s-4.6-4.7-18.5-7.91c0,0-39.64-9.09-84.83-12.23h0s5.07,7.21,18.69,9.13c12.08,1.7,55.52,5.56,85.41,12.11-.25-.38-.5-.75-.77-1.1Z"/>
        <path class="cls-26" d="M192.63,635.28h3.63c1.2,0,2.18-.98,2.18-2.18v-2.33c0-1.2-.98-2.18-2.18-2.18h-4.01c.08,2.17.2,4.41.38,6.69Z"/>
        <path class="cls-26" d="M192.29,615.31h3.97c1.2,0,2.18-.98,2.18-2.18v-2.33c0-1.2-.98-2.18-2.18-2.18h-3.57c-.15,1.93-.3,4.18-.4,6.69Z"/>
        <g class="cls-35">
          <g>
            <polygon class="cls-3" points="408.78 546.31 370.41 628.59 404.8 628.59 443.17 546.31 408.78 546.31"/>
            <polygon class="cls-3" points="355.44 546.31 317.07 628.59 329.32 628.59 367.69 546.31 355.44 546.31"/>
            <polygon class="cls-3" points="460.12 546.31 421.75 628.59 442 628.59 480.37 546.31 460.12 546.31"/>
            <polygon class="cls-3" points="380.74 546.31 342.38 628.59 350.28 628.59 388.65 546.31 380.74 546.31"/>
            <polygon class="cls-3" points="391.57 546.31 353.2 628.59 358.3 628.59 396.66 546.31 391.57 546.31"/>
          </g>
        </g>
        <path class="cls-32" d="M387.82,558.79c-1.87,10.77-3.57,36.09-4.38,49.52,6.26.29,12.74.58,19.26.85-1.56-19.22.8-42.58,1.6-49.62-5.46-.29-11.01-.54-16.48-.76Z"/>
        <path class="cls-13" d="M396.35,556.49l-.77-.09c-.08.7-7.82,71.01-2.1,131.31l.77-.07c-5.71-60.22,2.02-130.45,2.1-131.15Z"/>
        <g class="cls-21">
          <g>
            <polygon class="cls-3" points="276.93 548.28 244.45 617.94 273.57 617.94 306.05 548.28 276.93 548.28"/>
            <polygon class="cls-3" points="231.77 548.28 199.28 617.94 209.66 617.94 242.14 548.28 231.77 548.28"/>
            <polygon class="cls-3" points="320.4 548.28 287.91 617.94 305.06 617.94 337.55 548.28 320.4 548.28"/>
            <polygon class="cls-3" points="253.2 548.28 220.71 617.94 227.4 617.94 259.89 548.28 253.2 548.28"/>
            <polygon class="cls-3" points="262.36 548.28 229.88 617.94 234.19 617.94 266.67 548.28 262.36 548.28"/>
          </g>
        </g>
      </g>
      <g>
        <path class="cls-28" d="M503.08,162.09c0-9.86-8-17.86-17.86-17.86s-17.86,8-17.86,17.86,8,17.86,17.86,17.86,17.86-8,17.86-17.86Z"/>
        <path class="cls-28" d="M545.69,162.67c-7.19-37.29-39.99-65.45-79.38-65.45-30.61,0-64.26,11.97-83.84,56.04-24.87-1.14-44.46-2.45-78.48-9.04-30.93-5.98-29.41,9.63-26.84,16.56h0c7.42,24.3,24.91,44.47,47.36,58.14-.87,4.52-1.33,9.16-1.33,13.91,0,22.22,13.39,45.08,29.27,60.36-1.77,1.31-3.94,2.47-6.69,3.47-14.76-9.31-33.01-10.09-51.57-8.23-9.24.92-11.02,7.45-2.14,8.78,10.81,1.62,28.15.6,37.44,7.98-4.71,2.23-12.05,4.97-23.17,6.94-8.32,1.47-15.05,2.01-14.14,6.86.67,3.61,6.13,4.03,17.27,3.29,8.63-.58,18.88-2.88,25.06-4.82-1.64,8.55-18.73,16.26-31.76,19.79-7.89,2.15-6.87,9.66,4.71,8.29,19.7-2.36,43.93-10.16,44.4-32.7,3.41-2.08,9.13-5.15,14.25-8.83,2.39,1.51,4.78,2.87,7.11,3.93,34.18,15.54,93.4,17.23,121.09-40.4.11-.17.2-.35.29-.54h0c.17-.43.27-.9.27-1.39,0-2.01-1.63-3.65-3.65-3.65-1.46,0-2.72.86-3.3,2.11h0c-11.79,21.73-35.51,36.58-62.84,36.58-39.1,0-70.8-30.37-70.8-67.82,0-.18,0-.34,0-.53,10.68,3.3,49.47,14.19,60.78,14.73-.04-.09-.03-.13.04-.13,2.32,0,4.21-1.88,4.21-4.21,0-1.68-1-3.14-2.44-3.81-33.7-6.92-83.58-33.08-104.38-60.32-2.65-3.46-5.08-10.17,6.01-8.34,14.82,2.43,27.1,3.01,44.64,3.01,7.67,0,24.39-.94,35.75-2.44,3.74-32.05,32.49-56.99,67.41-56.99,37.46,0,67.82,28.69,67.82,64.08s-30.36,64.07-67.82,64.07c-.52,0-1.03,0-1.54-.02v.03c-1.98.11-3.56,1.75-3.56,3.77s1.69,3.77,3.77,3.77c39.63-.42,74.4-22.08,81.02-58.59,13.8-1.83,37.22-7.46,37.22-14.11s-23.8-12.37-37.55-14.16Z"/>
      </g>
      <line class="cls-1" y1="540.46" x2="184.77" y2="540.46"/>
      <line class="cls-1" y1="579.36" x2="161.95" y2="579.36"/>
      <line class="cls-1" y1="618.26" x2="161.95" y2="618.26"/>
      <line class="cls-1" y1="657.16" x2="146.89" y2="657.16"/>
      <line class="cls-1" y1="696.06" x2="172.86" y2="696.06"/>
    </g>
  </g>
</svg>