<?xml version="1.0" encoding="utf-8"?>
<!-- Generator: Adobe Illustrator 27.0.0, SVG Export Plug-In . SVG Version: 6.00 Build 0)  -->
<svg version="1.1" id="圖層_1" xmlns="http://www.w3.org/2000/svg" xmlns:xlink="http://www.w3.org/1999/xlink" x="0px" y="0px"
	 viewBox="0 0 168 33" style="enable-background:new 0 0 168 33;" xml:space="preserve">
<style type="text/css">
	.st0{fill:#FFFFFF;}
</style>
<g>
	<g>
		<path class="st0" d="M53.95,18.69c0.42-0.26,0.76-0.6,1.03-1.01c0.37-0.58,0.56-1.24,0.56-1.98c0-0.63-0.14-1.2-0.4-1.69
			c-0.27-0.5-0.69-0.9-1.24-1.19c-0.49-0.27-1.03-0.44-1.59-0.53c-0.54-0.08-1.35-0.12-2.39-0.12h-5.23v14.6h5.9
			c1,0,1.83-0.09,2.49-0.27c0.66-0.18,1.28-0.5,1.83-0.93c0.48-0.37,0.86-0.84,1.14-1.4c0.28-0.56,0.42-1.22,0.42-1.96
			c0-1.02-0.29-1.85-0.85-2.46C55.18,19.27,54.62,18.92,53.95,18.69z M51.28,17.12c-0.08,0.18-0.23,0.32-0.46,0.42
			c-0.23,0.11-0.45,0.16-0.66,0.17c-0.24,0.01-0.66,0.02-1.26,0.02h-0.19v-2.46c0.62,0,1.09,0,1.4,0.01
			c0.29,0.01,0.53,0.06,0.73,0.14c0.19,0.08,0.33,0.21,0.41,0.4c0.1,0.2,0.15,0.4,0.15,0.59C51.42,16.68,51.37,16.92,51.28,17.12z
			 M48.72,20.67h0.39c0.63,0,1.13,0,1.5,0.01c0.34,0.01,0.61,0.05,0.8,0.12c0.31,0.11,0.53,0.26,0.67,0.47
			c0.14,0.2,0.21,0.49,0.21,0.87c0,0.29-0.06,0.56-0.19,0.79c-0.12,0.22-0.31,0.38-0.58,0.5c-0.33,0.14-0.66,0.22-0.98,0.23
			c-0.34,0.01-0.95,0.02-1.83,0.02V20.67z"/>
		<polygon class="st0" points="63.77,16.92 61.17,12.17 56.53,12.17 61.67,20.88 61.67,26.78 65.73,26.78 65.73,20.7 70.79,12.17 
			66.28,12.17 		"/>
		<polygon class="st0" points="73.77,15.38 77.93,15.38 77.93,26.78 81.99,26.78 81.99,15.38 86.15,15.38 86.15,12.17 73.77,12.17 
					"/>
		<polygon class="st0" points="95.82,17.33 91.53,17.33 91.53,12.17 87.47,12.17 87.47,26.78 91.53,26.78 91.53,20.53 95.82,20.53 
			95.82,26.78 99.88,26.78 99.88,12.17 95.82,12.17 		"/>
		<polygon class="st0" points="102.66,26.78 112.7,26.78 112.7,23.57 106.7,23.57 106.7,20.53 112.23,20.53 112.23,17.33 
			106.7,17.33 106.7,15.38 112.7,15.38 112.7,12.17 102.66,12.17 		"/>
		<polygon class="st0" points="133.1,12.17 131.25,20.7 129.23,12.17 125.31,12.17 123.17,20.71 121.42,12.17 117.2,12.17 
			120.9,26.78 125.19,26.78 127.18,18.86 129.24,26.78 133.52,26.78 137.22,12.17 		"/>
		<path class="st0" d="M146.3,12.17h-4.23l-4.93,14.6h4.1l0.88-2.88h4.04l0.88,2.88h4.2l-4.87-14.43L146.3,12.17z M145.22,20.83
			h-2.17l1.08-3.5L145.22,20.83z"/>
		<polygon class="st0" points="160.31,12.17 157.81,16.92 155.2,12.17 150.56,12.17 155.71,20.88 155.71,26.78 159.76,26.78 
			159.76,20.7 164.82,12.17 		"/>
	</g>
	<g>
		<path class="st0" d="M29.57,9.15c0-1.23-1-2.23-2.23-2.23c-1.23,0-2.23,1-2.23,2.23c0,1.23,1,2.23,2.23,2.23
			C28.58,11.38,29.57,10.38,29.57,9.15z"/>
		<path class="st0" d="M34.89,9.22c-0.9-4.65-4.99-8.16-9.9-8.16c-3.82,0-8.01,1.49-10.46,6.99c-3.1-0.14-5.54-0.31-9.79-1.13
			C0.89,6.17,1.08,8.12,1.4,8.98c0,0,0,0,0,0c0.93,3.03,3.11,5.54,5.91,7.25c-0.11,0.56-0.17,1.14-0.17,1.73
			c0,2.77,1.67,5.62,3.65,7.53c-0.22,0.16-0.49,0.31-0.83,0.43c-1.84-1.16-4.12-1.26-6.43-1.03C2.37,25.02,2.15,25.83,3.26,26
			c1.35,0.2,3.51,0.08,4.67,1c-0.59,0.28-1.5,0.62-2.89,0.87C4,28.04,3.16,28.11,3.28,28.71c0.08,0.45,0.76,0.5,2.15,0.41
			c1.08-0.07,2.35-0.36,3.12-0.6c-0.2,1.07-2.34,2.03-3.96,2.47c-0.98,0.27-0.86,1.21,0.59,1.03c2.46-0.29,5.48-1.27,5.54-4.08
			c0.42-0.26,1.14-0.64,1.78-1.1c0.3,0.19,0.6,0.36,0.89,0.49c4.26,1.94,11.65,2.15,15.1-5.04c0.01-0.02,0.03-0.04,0.04-0.07
			c0,0,0,0,0,0l0,0c0.02-0.05,0.03-0.11,0.03-0.17c0-0.25-0.2-0.45-0.46-0.45c-0.18,0-0.34,0.11-0.41,0.26h0
			c-1.47,2.71-4.43,4.56-7.84,4.56c-4.88,0-8.83-3.79-8.83-8.46c0-0.02,0-0.04,0-0.07c1.33,0.41,6.17,1.77,7.58,1.84
			c0-0.01,0-0.02,0-0.02c0.29,0,0.52-0.23,0.52-0.52c0-0.21-0.12-0.39-0.3-0.47C14.62,17.86,8.4,14.6,5.81,11.2
			c-0.33-0.43-0.63-1.27,0.75-1.04c1.85,0.3,3.38,0.38,5.57,0.38c0.96,0,3.04-0.12,4.46-0.3c0.47-4,4.05-7.11,8.41-7.11
			c4.67,0,8.46,3.58,8.46,7.99c0,4.41-3.79,7.99-8.46,7.99c-0.06,0-0.13,0-0.19,0v0c-0.25,0.01-0.44,0.22-0.44,0.47
			c0,0.26,0.21,0.47,0.47,0.47c4.94-0.05,9.28-2.75,10.1-7.31c1.72-0.23,4.64-0.93,4.64-1.76C39.57,10.15,36.6,9.44,34.89,9.22z"/>
	</g>
</g>
</svg>
