<?xml version="1.0" encoding="utf-8"?>
<!-- Generator: Adobe Illustrator 27.0.0, SVG Export Plug-In . SVG Version: 6.00 Build 0)  -->
<svg version="1.1" id="圖層_1" xmlns="http://www.w3.org/2000/svg" xmlns:xlink="http://www.w3.org/1999/xlink" x="0px" y="0px"
	 viewBox="0 0 80 80" style="enable-background:new 0 0 80 80;" xml:space="preserve">
<style type="text/css">
	.st0{fill:none;stroke:#313131;stroke-width:3;stroke-linecap:round;stroke-linejoin:round;stroke-miterlimit:10;}
</style>
<path class="st0" d="M53.53,56.63v9.46c0,5.16-4.18,9.34-9.34,9.34H21.87c-5.16,0-9.34-4.18-9.34-9.34V14.77
	c0-5.16,4.18-9.34,9.34-9.34h22.32c5.16,0,9.34,4.18,9.34,9.34v11.41"/>
<path class="st0" d="M47.53,46.43H27.07c0,0-0.54,6,4.46,6h16"/>
<path class="st0" d="M47.53,29.43c0,0-16.05-1-16.05,17"/>
<path class="st0" d="M47.53,46.43h20.46c0,0,0.54,6-4.46,6h-16"/>
<path class="st0" d="M47.53,25.22v4.2c0,0,16.05-1,16.05,17"/>
<rect x="27.05" y="6.27" class="st0" width="12.45" height="1.66"/>
<line class="st0" x1="27.05" y1="67.52" x2="39.5" y2="67.52"/>
</svg>
