<?xml version="1.0" encoding="utf-8"?>
<!-- Generator: Adobe Illustrator 27.0.0, SVG Export Plug-In . SVG Version: 6.00 Build 0)  -->
<svg version="1.1" id="圖層_1" xmlns="http://www.w3.org/2000/svg" xmlns:xlink="http://www.w3.org/1999/xlink" x="0px" y="0px"
	 viewBox="0 0 80 80" style="enable-background:new 0 0 80 80;" xml:space="preserve">
<style type="text/css">
	.st0{fill:none;stroke:#313131;stroke-width:3;stroke-linecap:round;stroke-linejoin:round;stroke-miterlimit:10;}
</style>
<rect x="18.6" y="8.49" class="st0" width="44" height="7.86"/>
<path class="st0" d="M18.6,16.35c0,0-8,6.55-8,14.55v40.02h43V30.9c0,0,0.26-14.55,8.63-14.55H18.6z"/>
<path class="st0" d="M62.6,16.35c0,0,7,2,7,14.55v40.02h-16"/>
<path class="st0" d="M25.6,64.41c2-0.05,2-3.32,2-3.32V44.56c0,0,4-0.2,4-8.2s-6-9-6-9h-2c0,0-6,1-6,9s4,8.2,4,8.2v16.53
	c0,0,0,3.27,2,3.32H25.6z"/>
<path class="st0" d="M42.35,64.41c2.52,0,2.24-3.05,2.24-3.05v-17c4,0,3.19-7,3.19-7h-5.43h-0.51h-5.43c0,0-0.81,7,3.19,7v17
	c0,0-0.28,3.05,2.24,3.05H42.35z"/>
<line class="st0" x1="36.42" y1="27.96" x2="36.42" y2="37.35"/>
<line class="st0" x1="42.42" y1="27.96" x2="42.42" y2="37.35"/>
<line class="st0" x1="47.6" y1="27.96" x2="47.6" y2="37.35"/>
</svg>
