<?xml version="1.0" encoding="utf-8"?>
<!-- Generator: Adobe Illustrator 27.0.0, SVG Export Plug-In . SVG Version: 6.00 Build 0)  -->
<svg version="1.1" id="圖層_1" xmlns="http://www.w3.org/2000/svg" xmlns:xlink="http://www.w3.org/1999/xlink" x="0px" y="0px"
	 viewBox="0 0 80 80" style="enable-background:new 0 0 80 80;" xml:space="preserve">
<style type="text/css">
	.st0{fill:none;stroke:#313131;stroke-width:3;stroke-linecap:round;stroke-linejoin:round;stroke-miterlimit:10;}
</style>
<path class="st0" d="M57.86,38.2l-1.81,31.63c0,0,0,6.33-4.52,6.33h-8.94h-4.18h-8.94c-4.52,0-4.52-6.33-4.52-6.33L23.14,38.2"/>
<path class="st0" d="M57.86,32.15c0,0,0.64-14.65-13.36-15.65l-1.91,0.01h-4.18L37.5,16.5c-15,0-14.36,15.65-14.36,15.65"/>
<polygon class="st0" points="42.59,38.2 61,38.2 61,32.15 42.59,32.15 38.41,32.15 20,32.15 20,38.2 38.41,38.2 "/>
<polyline class="st0" points="38.92,32.15 41.22,3.86 46.19,3.86 43.88,32.15 "/>
</svg>
