<?xml version="1.0" encoding="utf-8"?>
<!-- Generator: Adobe Illustrator 27.0.0, SVG Export Plug-In . SVG Version: 6.00 Build 0)  -->
<svg version="1.1" id="圖層_1" xmlns="http://www.w3.org/2000/svg" xmlns:xlink="http://www.w3.org/1999/xlink" x="0px" y="0px"
	 viewBox="0 0 80 80" style="enable-background:new 0 0 80 80;" xml:space="preserve">
<style type="text/css">
	.st0{fill:none;stroke:#313131;stroke-width:3;stroke-linecap:round;stroke-linejoin:round;stroke-miterlimit:10;}
	.st1{fill:none;stroke:#313131;stroke-width:2.7;stroke-linecap:round;stroke-linejoin:round;stroke-miterlimit:10;}
</style>
<path class="st0" d="M19.77,16c0-4.11,2.82-7.44,6.29-7.44h29.25c3.47,0,6.29,3.33,6.29,7.44"/>
<path class="st0" d="M61.6,36.34v30.37c0,3.47-2.82,6.29-6.29,6.29H26.06c-3.47,0-6.29-2.82-6.29-6.29V36.34"/>
<polygon class="st0" points="19.77,16.97 61.6,16.97 69.51,28.91 13.34,28.91 "/>
<path class="st1" d="M25.46,29.48c-0.04,4.89-2.3,6.22-6.26,6.22s-6.22-2.65-6.2-6.22"/>
<path class="st1" d="M40.16,30.38c-0.04,4.18-2.3,5.31-6.26,5.31s-6.22-2.26-6.2-5.31"/>
<path class="st1" d="M54.85,30.38c-0.04,4.18-2.3,5.31-6.26,5.31s-6.22-2.26-6.2-5.31"/>
<path class="st1" d="M69.55,29.48c-0.04,4.89-2.3,6.22-6.26,6.22s-6.22-2.65-6.2-6.22"/>
<line class="st1" x1="31.52" y1="16.97" x2="27.7" y2="28.91"/>
<line class="st1" x1="52.57" y1="16.97" x2="56.39" y2="28.91"/>
<line class="st1" x1="41.42" y1="16.97" x2="41.42" y2="28.91"/>
<line class="st1" x1="20.9" y1="65.09" x2="60.63" y2="65.09"/>
</svg>
